<svg xmlns="http://www.w3.org/2000/svg" viewBox="0 0 512 512" style="enable-background:new 0 0 512 512" xml:space="preserve"><path style="fill:#e5e5e5" d="M281.182 310.235V62.607c0-13.84-11.222-25.064-25.066-25.064-13.842 0-25.064 11.223-25.064 25.064v247.627c15.438-9.12 34.668-9.136 50.13.001z"/><path style="fill:#c3c9c3" d="M256.116 62.607c0-9.273 5.042-17.366 12.532-21.701-16.621-9.618-37.598 2.382-37.598 21.701v247.627a49.111 49.111 0 0 1 25.065-6.842l.001-240.785z"/><path style="fill:#ff4848" d="M256.117 309.893a7.499 7.499 0 0 1-7.5-7.5v-184.42c0-4.143 3.357-7.5 7.5-7.5s7.5 3.357 7.5 7.5v184.42c0 4.143-3.357 7.5-7.5 7.5z"/><path style="fill:#d12a2a" d="M256.116 110.472a7.5 7.5 0 0 0-7.499 7.5c0 195.274-.082 184.813.162 185.97a49.71 49.71 0 0 1 7.337-.55v-192.92z"/><circle style="fill:#d2d6ce" cx="256.115" cy="351.748" r="49.351"/><path style="fill:#acb2a6" d="M236.286 351.747c0-22.115 14.547-40.831 34.594-47.106-31.779-9.953-64.118 13.833-64.118 47.106 0 27.259 22.098 49.353 49.356 49.353 5.143 0 10.101-.789 14.762-2.248-20.047-6.275-34.594-24.989-34.594-47.105z"/><circle style="fill:#ff4848" cx="256.115" cy="351.748" r="19.83"/><path style="fill:#d33333" d="M254.098 351.747c0-7.745 4.451-14.435 10.924-17.699a19.709 19.709 0 0 0-8.906-2.13c-10.951 0-19.829 8.877-19.829 19.829 0 14.739 15.557 24.348 28.736 17.7-6.474-3.264-10.925-9.954-10.925-17.7z"/><path d="M2.64 388.19a7.499 7.499 0 0 0 10.572-.852c23.099-27.147 64.907-27.118 87.975-.001 24.077 28.303 65.397 33.834 95.923 13.308a7.498 7.498 0 0 0 2.039-10.408 7.5 7.5 0 0 0-10.408-2.039c-9.516 6.397-20.629 9.779-32.141 9.779-16.947 0-32.981-7.421-43.987-20.358-13.86-16.293-34.058-25.638-55.412-25.638-21.353 0-41.55 9.344-55.412 25.637a7.498 7.498 0 0 0 .851 10.572zM312.265 389.735a7.5 7.5 0 0 0 1.918 10.432c34.253 23.616 78.302 11.608 96.631-12.83 23.099-27.148 64.903-27.112 87.975.002a7.5 7.5 0 0 0 11.424-9.72c-29.091-34.19-81.772-34.148-110.824 0-1 .8-15.576 20.359-43.988 20.359-11.753 0-23.061-3.514-32.703-10.16a7.5 7.5 0 0 0-10.433 1.917z"/><path d="M399.387 447.608c-23.099 27.149-64.892 27.121-87.97.007-26.971-31.688-77.212-36.68-110.834 0-23.104 27.144-64.897 27.111-87.971-.007-29.09-34.191-81.768-34.149-110.823 0a7.5 7.5 0 0 0 11.424 9.72c23.101-27.149 64.904-27.118 87.976 0 29.093 34.194 81.77 34.151 110.825 0l.006-.008c23.1-27.141 64.89-27.106 87.961 0a.055.055 0 0 1 .006.008c29.092 34.192 81.769 34.153 110.824 0 23.1-27.15 64.903-27.116 87.977 0a7.485 7.485 0 0 0 5.716 2.64 7.5 7.5 0 0 0 5.708-12.36c-29.092-34.191-81.769-34.148-110.825 0zM256 408.601c36.034 0 63.207-33.326 55.591-68.823-.868-4.052-4.857-6.633-8.905-5.761a7.5 7.5 0 0 0-5.761 8.905C302.536 369.096 282.498 393.6 256 393.6c-23.079 0-41.857-18.775-41.857-41.854 0-38.066 47.85-56.932 73.476-27.425a7.5 7.5 0 0 0 11.326-9.834 56.888 56.888 0 0 0-10.381-9.322v-50.848h19.833c4.143 0 7.5-3.357 7.5-7.5s-3.357-7.5-7.5-7.5h-19.833v-49.422h19.833c4.143 0 7.5-3.357 7.5-7.5s-3.357-7.5-7.5-7.5h-19.833v-49.422h19.833c4.143 0 7.5-3.357 7.5-7.5s-3.357-7.5-7.5-7.5h-19.833V99.314c0-4.143-3.357-7.5-7.5-7.5s-7.5 3.357-7.5 7.5v198.359c-3.016-.98-6.514-1.792-10.063-2.265V117.972c0-4.143-3.357-7.5-7.5-7.5a7.499 7.499 0 0 0-7.5 7.5v177.43a57.76 57.76 0 0 0-10.065 2.271V61.607c0-9.684 7.879-17.563 17.563-17.563 9.686 0 17.566 7.879 17.566 17.563v13.379c0 4.143 3.357 7.5 7.5 7.5s7.5-3.357 7.5-7.5V61.607c0-17.955-14.608-32.564-32.567-32.564-17.955 0-32.564 14.607-32.564 32.564v243.577c-14.672 10.292-24.291 27.321-24.291 46.563.001 31.35 25.507 56.854 56.857 56.854z"/><path d="M255.998 324.418c-15.069 0-27.33 12.26-27.33 27.33 0 15.07 12.26 27.331 27.33 27.331 15.07 0 27.331-12.26 27.331-27.331 0-15.07-12.259-27.33-27.331-27.33zm0 39.66c-6.798 0-12.329-5.531-12.329-12.33 0-6.798 5.531-12.329 12.329-12.329 6.799 0 12.33 5.531 12.33 12.329.001 6.799-5.531 12.33-12.33 12.33z"/></svg>